<svg version="1" xmlns="http://www.w3.org/2000/svg" width="2000" height="2000" viewBox="0 0 1500.000000 1500.000000"><path d="M591.8 253.4c-.1.2-7.3.6-15.8 1-8.5.3-16.4.7-17.5 1-1.1.2-4.7.7-8 1-11.5 1.3-31.1 4.7-41.4 7.2-12.5 3.1-35.2 10.2-36.6 11.5-.5.5-1.5.9-2.2.9-2.1 0-23.3 10.1-33.3 15.8-27.4 15.8-52.8 40.1-67.8 64.9-8 13.3-18.8 40.4-20.6 51.7-.4 2.1-.8 4.2-1.1 4.6-.2.4-.7 2.7-1 5.1-.3 2.4-.7 5.6-1 7-1.5 7.1-1.8 20.4-2.1 108l-.3 94.6 112.7-.1 112.7-.1.1-84c0-73.9.2-84.4 1.6-87.6 3-6.9 11.8-10.7 23.8-10.4 12.7.4 20.8 4.6 22.9 12 .8 2.9 1.1 29.9.9 96.4l-.3 92.5-23.5 5.8c-33.9 8.3-66.1 17.3-82 22.8-7.8 2.7-17.8 6.3-19.5 7.1-1.1.4-6.9 2.9-13 5.5-74.8 31.5-118.6 82.7-132 154.2-1.4 7.2-1.8 10.1-3.4 25.2-.9 8.5-.7 145.9.2 150.5.3 1.6.8 4.8 1.1 7 9.7 74 60 130.4 140.3 157.4 16.3 5.5 38 10.7 52.3 12.6 1.4.1 6.1.8 10.5 1.4 4.4.6 10.9 1.4 14.5 1.8 3.6.4 132.7.8 287 .8h280.5v-98.8c0-54.4-.3-99.3-.6-99.9-.5-.7-39.3-1-117.9-1H894.8l.5-2.2c.3-1.1 10-24.8 21.7-52.6 11.6-27.8 22.9-54.8 25.1-60 2.2-5.2 4.4-10.4 4.8-11.5.5-1.1 1.6-3.6 2.4-5.5.8-1.9 9.9-23.8 20.2-48.5 10.3-24.8 19.6-46.8 20.5-49 1-2.2 4.6-10.8 8-19 3.4-8.3 6.7-16.4 7.5-18 .7-1.7 3.6-8.6 6.4-15.5 2.9-6.9 5.6-13.4 6.1-14.5.5-1.1 5-11.9 10.1-24 5-12.1 9.7-23.4 10.4-25 2.2-5 26.3-62.8 27.5-66 .6-1.6 1.8-4.3 2.5-6 .8-1.6 10.7-25.3 22.1-52.5 11.3-27.2 24.9-59.6 30.2-72l9.5-22.5.1-82.8.1-82.7-4-.1c-2.2 0-99.8-.1-216.8-.1H696.9l-8.7-2.4c-9.2-2.6-25.4-6.2-31.2-7-1.9-.3-5.7-.9-8.5-1.4-2.7-.5-7.9-1.2-11.5-1.6-3.6-.3-7.6-.8-9-1-1.4-.2-9.5-.7-18-1-8.5-.3-16-.7-16.7-.9-.6-.2-1.3-.2-1.5-.1zm32.2 36.9c1.9.3 6.2.8 9.5 1.2 3.3.4 11 1.5 17 2.6 6.1 1.1 11.6 2.1 12.3 2.1.9.1 1.2 18.1 1.2 86.5V469h72c56.9 0 72 .3 72.1 1.2 0 .7.1 50.6.1 110.8l.1 109.5-4.1 9.5c-2.2 5.2-17.8 42.3-34.7 82.5-16.9 40.1-31.3 74.3-32.1 76-.7 1.6-11.5 27.3-23.9 57-12.4 29.7-23 54.9-23.5 56-2.3 5.1-5.2 12-10 23.5-2.8 6.9-5.8 13.8-6.5 15.5-.8 1.6-3.2 7.4-5.4 12.7l-4.1 9.7v130.9l-46.7-.3c-25.8-.2-47.9-.6-49.3-.8-1.4-.3-5.6-.8-9.5-1.2-30.7-2.8-64.6-12-89.7-24.5-10-4.9-24.2-13.3-29.8-17.7-18.3-14.1-33.3-31.2-43.2-49.3-5.7-10.4-13.1-32.1-14.4-42.5-.3-2.2-.7-4.5-.9-5.2-2.7-8.2-2.7-149.4-.1-164.3.2-1.4.7-4.4 1-6.8 1.7-13.2 7.4-31.5 14.1-45.7 16.2-33.8 43.1-59 85-79.5 21.2-10.3 44.6-19.1 69.5-26 6.3-1.7 12.6-3.6 14-4 1.4-.5 11.5-3.2 22.5-5.9s21.4-5.2 23-5.7c1.7-.4 3.5-.8 4.1-1 .7-.1 6.8-1.6 13.6-3.2 6.8-1.7 13.8-3.4 15.5-3.7 1.7-.3 4.8-1.1 6.9-1.8l3.8-1.2V567c-.1-58.6-.4-108.8-.7-111.5-1.9-15-9.9-27-23.4-35.6-7.8-4.9-12.4-6.6-22.3-8.4-15-2.7-33.1-.5-45.8 5.8-8.4 4.1-18.8 14.2-22.4 21.7-5.3 11-5.5 13.9-5.4 86.2.1 43.7-.2 66.9-.9 67.1-.5.2-35.4.3-77.5.3l-76.5-.1.1-73.5c0-40.4.3-76.7.7-80.5 1-10 2.3-18.3 3.3-21.7.3-.9.6-2.5.9-3.5 1.4-7.4 7.7-23.8 12.8-33.3 22.4-41.5 70.1-72.2 131.2-84.4 25.5-5.1 39.4-6.3 69.5-6 12.9.1 25.1.5 27 .7zm471 18.9c.1 2.9.1 30.6.1 61.5v56.1l-10.1 24.4c-5.6 13.3-10.7 25.6-11.4 27.3-1.4 3.2-5.3 12.4-13.6 32.5-2.9 6.9-5.8 13.8-6.5 15.5-2.5 5.7-4.7 11-9.2 22-2.5 6-5.4 13-6.5 15.4-1.1 2.5-2.6 6.1-3.3 8-.7 2-2.2 5.6-3.3 8.1-1.2 2.5-6.1 14.2-11 26-8.2 19.7-24 57.4-53.9 129-6.3 15.1-22.3 53.4-35.5 85s-24.6 58.8-25.3 60.5c-.8 1.6-3.7 8.6-6.5 15.5s-5.8 13.8-6.5 15.5c-.7 1.6-5.9 14-11.5 27.5-5.5 13.5-10.7 25.8-11.5 27.5-1.3 3-3.5 8.2-10.1 24.4-1.9 4.6-4.6 10.8-5.9 13.8-1.4 2.9-2.5 5.6-2.5 5.9 0 .3-.6 2-1.4 3.7-.8 1.8-2.2 5.1-3.2 7.4-1 2.4-2 4.3-2.4 4.3-.3 0-.5-74.1-.4-164.8l.1-164.7 4.2-10c2.4-5.5 4.9-11.4 5.6-13 .8-1.7 4.8-11.3 9.1-21.5 4.2-10.2 8.4-20.3 9.4-22.5 1-2.2 13.8-32.6 28.5-67.5s30.2-71.8 34.5-82c15.5-36.7 19-45 19-45.5 0-.3-25.1-.5-55.9-.5h-55.9l-.8-6.8c-.4-3.7-.9-7.2-.9-7.7-.9-7.9-7.9-31.4-12.3-41.5-11.8-27.3-30.9-52.1-53.1-69.1l-6.4-4.9H1095v5.2zm-389.4.2c28.7 11.5 54.6 29.8 71.1 50.1 8.7 10.7 17.9 27.4 22.4 40.4 2.6 7.4 6.5 23.4 7.3 29.3l.6 4.8H699.2v-63.5c0-34.9.1-63.5.2-63.5s2.9 1.1 6.2 2.4zM901 469.5c0 .6-4.1 10.8-6.9 17-1 2.2-12.5 29.5-25.6 60.7-13.1 31.3-24.1 56.8-24.4 56.8-.4 0-.6-30.4-.6-67.5l-.1-67.5h28.8c15.8 0 28.8.2 28.8.5zm-92.6 503.7l-.1 190.3-53.4.1c-29.4 0-53.9-.2-54.6-.4-.8-.3-1.1-15.8-1.1-61.5l-.1-61.2 11.1-26.5c6.1-14.6 13.1-31.2 15.6-37 2.4-5.8 6.1-14.6 8.1-19.5 2.1-5 4.5-10.6 5.3-12.5.9-1.9 8-18.8 15.8-37.5 7.8-18.7 15.5-36.9 17-40.5 1.5-3.6 5.8-13.7 9.5-22.5 10.4-24.7 12.5-29.8 14-33 .7-1.7 3.7-8.7 6.5-15.8 2.9-7 5.5-12.7 5.9-12.7.3 0 .6 85.6.5 190.2zm286.2 61c.7.8.8 127.4 0 128.6-.3.5-51.1.8-125.8.8l-125.3-.1v-64.4c-.1-60 0-64.4 1.7-65 2-.7 248.6-.6 249.4.1z"/><path d="M651.9 800.4c-.3.3-1.8.7-3.4 1-1.7.3-8.6 2-15.5 3.6-6.9 1.7-19.2 4.6-27.4 6.6-20.9 4.8-27.9 7.1-37.1 11.6-15.7 7.8-24.8 18.1-30.3 34.3-4.4 12.9-4.5 14.6-4.7 74.9-.1 32 .2 60.2.8 63 3.3 18.3 19.1 31.8 43.2 37.2 4 .9 75.5 1.4 75.6.6.4-3.3.3-231.6-.2-232.3-.3-.5-.7-.7-1-.5zm-33.8 64.1V946l-.1 53-15.2-.2c-8.4-.1-17.1-.6-19.3-1-6.6-1.4-12.3-4.6-13.8-7.5-1.1-2.3-1.3-13.3-1.1-57.3.1-30 .5-55.6.8-56.9 2.8-11.8 6.8-17.7 14.9-21.8 4.6-2.3 27.9-9 32-9.2 1.6-.1 1.7 1.5 1.8 19.4z"/></svg>